<svg width="46" height="44" viewBox="0 0 46 44" fill="none" xmlns="http://www.w3.org/2000/svg">
<path d="M23.6571 41.4858C20.93 41.4858 18.3672 40.9904 15.9686 39.9998C13.57 39.0092 11.4836 37.6659 9.7093 35.9701C7.93501 34.2742 6.5307 32.2784 5.49636 29.9829C4.46202 27.6874 3.94419 25.2359 3.94287 22.6286C3.94156 20.0213 4.45939 17.5699 5.49636 15.2743C6.53333 12.9788 7.93764 10.9831 9.7093 9.2872C11.481 7.59131 13.5674 6.24806 15.9686 5.25743C18.3698 4.2668 20.9326 3.77148 23.6571 3.77148C26.3817 3.77148 28.9445 4.2668 31.3457 5.25743C33.7469 6.24806 35.8333 7.59131 37.605 9.2872C39.3767 10.9831 40.7816 12.9788 41.8199 15.2743C42.8582 17.5699 43.3754 20.0213 43.3714 22.6286C43.3675 25.2359 42.8496 27.6874 41.8179 29.9829C40.7862 32.2784 39.3819 34.2742 37.605 35.9701C35.8281 37.6659 33.7417 39.0098 31.3457 40.0017C28.9498 40.9936 26.3869 41.4883 23.6571 41.4858Z" fill="#3C2A5D"/>
<path d="M23.6571 12.5717C29.4545 12.5717 34.1714 17.0835 34.1714 22.6288C34.1714 28.1741 29.4545 32.6859 23.6571 32.6859C17.8598 32.6859 13.1429 28.1741 13.1429 22.6288C13.1429 17.0835 17.8598 12.5717 23.6571 12.5717ZM23.6571 10.0574C16.3983 10.0574 10.5143 15.6856 10.5143 22.6288C10.5143 29.572 16.3983 35.2002 23.6571 35.2002C30.9159 35.2002 36.8 29.572 36.8 22.6288C36.8 15.6856 30.9159 10.0574 23.6571 10.0574ZM30.2286 21.3717H24.9714V16.3431H22.3429V21.3717H17.0857V23.8859H22.3429V28.9145H24.9714V23.8859H30.2286V21.3717Z" fill="#BA68C8"/>
</svg>
