<svg width="22" height="21" viewBox="0 0 22 21" fill="none" xmlns="http://www.w3.org/2000/svg">
<path d="M17.4167 16.2185H4.58333V7.29415H17.4167M14.6667 1.61499V3.23761H7.33333V1.61499H5.5V3.23761H4.58333C3.56583 3.23761 2.75 3.95967 2.75 4.86022V16.2185C2.75 16.6489 2.94315 17.0616 3.28697 17.3659C3.63079 17.6702 4.0971 17.8412 4.58333 17.8412H17.4167C17.9029 17.8412 18.3692 17.6702 18.713 17.3659C19.0568 17.0616 19.25 16.6489 19.25 16.2185V4.86022C19.25 4.42988 19.0568 4.01716 18.713 3.71286C18.3692 3.40856 17.9029 3.23761 17.4167 3.23761H16.5V1.61499M15.5833 10.5394H11V14.5959H15.5833V10.5394Z" fill="#F8F8F8"/>
</svg>
