<svg width="19" height="21" viewBox="0 0 19 21" fill="none" xmlns="http://www.w3.org/2000/svg">
<path opacity="0.3" d="M3.95837 15.8201V16.6251H4.68671L11.8592 8.69758L11.1309 7.89258L3.95837 15.8201Z" fill="#C5B0E9"/>
<path d="M14.0204 7.035C14.0938 6.95405 14.152 6.8579 14.1918 6.75205C14.2315 6.64619 14.2519 6.53272 14.2519 6.41813C14.2519 6.30353 14.2315 6.19006 14.1918 6.0842C14.152 5.97835 14.0938 5.8822 14.0204 5.80125L12.1679 3.75375C12.0096 3.57875 11.8117 3.5 11.6058 3.5C11.4 3.5 11.2021 3.5875 11.0517 3.75375L9.60292 5.355L12.5717 8.63625L14.0204 7.035ZM0 15.9688V19.25H2.96875L11.7246 9.5725L8.75583 6.29125L0 15.9688ZM2.31167 17.5H1.58333V16.695L8.75583 8.7675L9.48417 9.5725L2.31167 17.5Z" fill="#C5B0E9"/>
</svg>
