<svg width="27" height="27" viewBox="0 0 27 27" fill="none" xmlns="http://www.w3.org/2000/svg">
<path fill-rule="evenodd" clip-rule="evenodd" d="M21.9375 7.3125C21.4899 7.3125 21.0607 7.49029 20.7443 7.80676C20.4278 8.12322 20.25 8.55245 20.25 9V10.125H23.625V9C23.625 8.55245 23.4472 8.12322 23.1307 7.80676C22.8143 7.49029 22.3851 7.3125 21.9375 7.3125ZM23.625 11.25H20.25V20.5312L21.9375 23.0625L23.625 20.5312V11.25ZM3.375 5.0625V21.9375C3.375 22.3851 3.55279 22.8143 3.86926 23.1307C4.18572 23.4472 4.61495 23.625 5.0625 23.625H17.4375C17.8851 23.625 18.3143 23.4472 18.6307 23.1307C18.9472 22.8143 19.125 22.3851 19.125 21.9375V5.0625C19.125 4.61495 18.9472 4.18572 18.6307 3.86926C18.3143 3.55279 17.8851 3.375 17.4375 3.375H5.0625C4.61495 3.375 4.18572 3.55279 3.86926 3.86926C3.55279 4.18572 3.375 4.61495 3.375 5.0625ZM11.25 8.4375C11.25 8.28832 11.3093 8.14524 11.4148 8.03975C11.5202 7.93426 11.6633 7.875 11.8125 7.875H16.3125C16.4617 7.875 16.6048 7.93426 16.7102 8.03975C16.8157 8.14524 16.875 8.28832 16.875 8.4375C16.875 8.58668 16.8157 8.72976 16.7102 8.83525C16.6048 8.94074 16.4617 9 16.3125 9H11.8125C11.6633 9 11.5202 8.94074 11.4148 8.83525C11.3093 8.72976 11.25 8.58668 11.25 8.4375ZM11.8125 10.125C11.6633 10.125 11.5202 10.1843 11.4148 10.2898C11.3093 10.3952 11.25 10.5383 11.25 10.6875C11.25 10.8367 11.3093 10.9798 11.4148 11.0852C11.5202 11.1907 11.6633 11.25 11.8125 11.25H16.3125C16.4617 11.25 16.6048 11.1907 16.7102 11.0852C16.8157 10.9798 16.875 10.8367 16.875 10.6875C16.875 10.5383 16.8157 10.3952 16.7102 10.2898C16.6048 10.1843 16.4617 10.125 16.3125 10.125H11.8125ZM11.25 15.75C11.25 15.6008 11.3093 15.4577 11.4148 15.3523C11.5202 15.2468 11.6633 15.1875 11.8125 15.1875H16.3125C16.4617 15.1875 16.6048 15.2468 16.7102 15.3523C16.8157 15.4577 16.875 15.6008 16.875 15.75C16.875 15.8992 16.8157 16.0423 16.7102 16.1477C16.6048 16.2532 16.4617 16.3125 16.3125 16.3125H11.8125C11.6633 16.3125 11.5202 16.2532 11.4148 16.1477C11.3093 16.0423 11.25 15.8992 11.25 15.75ZM11.8125 17.4375C11.6633 17.4375 11.5202 17.4968 11.4148 17.6023C11.3093 17.7077 11.25 17.8508 11.25 18C11.25 18.1492 11.3093 18.2923 11.4148 18.3977C11.5202 18.5032 11.6633 18.5625 11.8125 18.5625H16.3125C16.4617 18.5625 16.6048 18.5032 16.7102 18.3977C16.8157 18.2923 16.875 18.1492 16.875 18C16.875 17.8508 16.8157 17.7077 16.7102 17.6023C16.6048 17.4968 16.4617 17.4375 16.3125 17.4375H11.8125ZM6.75 15.75V17.4375H8.4375V15.75H6.75ZM6.1875 14.625H9C9.14918 14.625 9.29226 14.6843 9.39775 14.7898C9.50324 14.8952 9.5625 15.0383 9.5625 15.1875V18C9.5625 18.1492 9.50324 18.2923 9.39775 18.3977C9.29226 18.5032 9.14918 18.5625 9 18.5625H6.1875C6.03832 18.5625 5.89524 18.5032 5.78975 18.3977C5.68426 18.2923 5.625 18.1492 5.625 18V15.1875C5.625 15.0383 5.68426 14.8952 5.78975 14.7898C5.89524 14.6843 6.03832 14.625 6.1875 14.625ZM9.96019 8.83519C10.0627 8.7291 10.1193 8.58701 10.1181 8.43952C10.1168 8.29204 10.0576 8.15096 9.95334 8.04666C9.84904 7.94237 9.70796 7.88321 9.56048 7.88193C9.41299 7.88065 9.2709 7.93735 9.16481 8.03981L7.3125 9.89213L6.58519 9.16481C6.4791 9.06235 6.33701 9.00565 6.18952 9.00693C6.04204 9.00821 5.90096 9.06737 5.79666 9.17166C5.69237 9.27596 5.63322 9.41704 5.63193 9.56452C5.63065 9.71201 5.68735 9.8541 5.78981 9.96019L7.3125 11.4829L9.96019 8.83519Z" fill="#BA68C8"/>
</svg>
