<svg width="25" height="22" viewBox="0 0 25 22" fill="none" xmlns="http://www.w3.org/2000/svg">
<g clip-path="url(#clip0_247_1755)">
<path d="M3.84615 0C1.73077 0 0 1.52308 0 3.38462V18.6154C0 20.4769 1.73077 22 3.84615 22H15.2942L13.3712 20.3077H3.84615C2.78846 20.3077 1.92308 19.5462 1.92308 18.6154V3.38462C1.92308 2.45385 2.78846 1.69231 3.84615 1.69231H10.8779C11.551 1.86154 11.5385 2.62308 11.5385 3.38462V5.92308C11.5385 6.43077 11.9231 6.76923 12.5 6.76923H15.3846C16.3462 6.76923 17.3077 6.76923 17.3077 7.61538V15.9187L17.4885 16.0769L19.2308 13.8025V6.76923C19.2308 5.83846 18.2808 4.98215 16.6462 3.54285C16.3577 3.37362 16.1538 3.13077 15.8654 2.96154C15.6731 2.70769 15.3962 2.52746 15.2038 2.27362C13.5702 0.836 12.5962 0 11.5385 0H3.84615ZM23.1971 11.8462C23.0255 11.8877 22.8762 11.9815 22.776 12.111L17.699 18.6941L15.3846 16.5787C15.0962 16.3248 14.7058 16.3248 14.5135 16.5787L13.6423 17.3462C13.3538 17.6 13.3538 17.9435 13.6423 18.1128L17.2173 21.2334C17.4096 21.4026 17.6808 21.5769 17.9692 21.5769C18.2577 21.5769 18.5577 21.4077 18.75 21.1538L24.9096 13.1949C25.1019 13.1103 24.9885 12.7025 24.7 12.5341L23.6481 11.9248C23.5836 11.8843 23.51 11.8563 23.4322 11.8427C23.3545 11.8291 23.2743 11.8303 23.1971 11.8462Z" fill="#F8F8F8"/>
</g>
<defs>
<clipPath id="clip0_247_1755">
<rect width="25" height="22" fill="white"/>
</clipPath>
</defs>
</svg>
