<svg width="28" height="27" viewBox="0 0 28 27" fill="none" xmlns="http://www.w3.org/2000/svg">
<path d="M16.0741 20C16.0741 20.3956 15.9524 20.7822 15.7245 21.1111C15.4966 21.44 15.1727 21.6964 14.7937 21.8478C14.4147 21.9991 13.9977 22.0387 13.5954 21.9616C13.193 21.8844 12.8235 21.6939 12.5334 21.4142C12.2433 21.1345 12.0458 20.7781 11.9658 20.3902C11.8858 20.0022 11.9268 19.6001 12.0838 19.2346C12.2408 18.8692 12.5066 18.5568 12.8477 18.3371C13.1888 18.1173 13.5898 18 14 18C14.5501 18 15.0776 18.2107 15.4666 18.5858C15.8556 18.9609 16.0741 19.4696 16.0741 20ZM28 13.5C28 16.17 27.1789 18.7801 25.6406 21.0002C24.1022 23.2203 21.9157 24.9506 19.3576 25.9724C16.7994 26.9942 13.9845 27.2615 11.2687 26.7406C8.553 26.2197 6.05845 24.9339 4.10051 23.0459C2.14258 21.1579 0.809205 18.7525 0.269012 16.1337C-0.271181 13.515 0.00606603 10.8006 1.06569 8.33377C2.12532 5.86697 3.91973 3.75856 6.22202 2.27516C8.52431 0.791761 11.2311 0 14 0C17.7118 0.00397028 21.2703 1.42756 23.8949 3.95844C26.5196 6.48932 27.9959 9.92079 28 13.5ZM24.8889 13.5C24.8889 11.4233 24.2503 9.39323 23.0538 7.66651C21.8573 5.9398 20.1567 4.59398 18.167 3.79926C16.1773 3.00454 13.9879 2.79661 11.8757 3.20175C9.76345 3.6069 7.82324 4.60693 6.3004 6.07538C4.77756 7.54383 3.74049 9.41475 3.32034 11.4515C2.90019 13.4883 3.11583 15.5995 3.93998 17.5182C4.76414 19.4368 6.15979 21.0767 7.95046 22.2304C9.74113 23.3842 11.8464 24 14 24C16.887 23.997 19.6548 22.8898 21.6962 20.9213C23.7376 18.9528 24.8858 16.2839 24.8889 13.5ZM14 5.5C10.8552 5.5 8.2963 7.7425 8.2963 10.5V11C8.2963 11.3978 8.46019 11.7794 8.75191 12.0607C9.04364 12.342 9.4393 12.5 9.85186 12.5C10.2644 12.5 10.6601 12.342 10.9518 12.0607C11.2435 11.7794 11.4074 11.3978 11.4074 11V10.5C11.4074 9.3975 12.5741 8.5 14 8.5C15.4259 8.5 16.5926 9.3975 16.5926 10.5C16.5926 11.6025 15.4259 12.5 14 12.5C13.5874 12.5 13.1918 12.658 12.9001 12.9393C12.6083 13.2206 12.4444 13.6022 12.4444 14V15C12.4435 15.3706 12.5849 15.7284 12.8413 16.0044C13.0977 16.2805 13.4511 16.4552 13.8332 16.495C14.2153 16.5347 14.5991 16.4367 14.9107 16.2197C15.2222 16.0027 15.4395 15.6823 15.5206 15.32C17.9291 14.735 19.7037 12.7962 19.7037 10.5C19.7037 7.7425 17.1448 5.5 14 5.5Z" fill="#C5B0E9"/>
</svg>
