<svg width="23" height="22" viewBox="0 0 23 22" fill="none" xmlns="http://www.w3.org/2000/svg">
<g clip-path="url(#clip0_240_1747)">
<path fill-rule="evenodd" clip-rule="evenodd" d="M10.5225 0.0398414C12.5073 -0.122173 14.502 0.211725 16.3113 1.00883C18.1206 1.80593 19.6824 3.0389 20.8438 4.58697V2.40622C20.8438 2.13271 20.9573 1.87041 21.1595 1.67701C21.3617 1.48362 21.6359 1.37497 21.9219 1.37497C22.2078 1.37497 22.482 1.48362 22.6842 1.67701C22.8864 1.87041 23 2.13271 23 2.40622V8.24997H16.8906C16.6047 8.24997 16.3305 8.14132 16.1283 7.94792C15.9261 7.75452 15.8125 7.49222 15.8125 7.21872C15.8125 6.94521 15.9261 6.68291 16.1283 6.48951C16.3305 6.29612 16.6047 6.18747 16.8906 6.18747H19.3732C18.3901 4.71609 16.9779 3.5524 15.3111 2.84015C13.6443 2.1279 11.7959 1.8983 9.99419 2.1797C8.19249 2.46111 6.51642 3.24119 5.17305 4.42358C3.82968 5.60598 2.87784 7.1389 2.43513 8.83297C2.40247 8.96604 2.34248 9.09158 2.25865 9.20228C2.17481 9.31298 2.06881 9.40663 1.9468 9.4778C1.82479 9.54896 1.6892 9.59621 1.54793 9.6168C1.40665 9.63739 1.26251 9.63091 1.12387 9.59773C0.98524 9.56456 0.854886 9.50535 0.740389 9.42356C0.625893 9.34176 0.529539 9.23901 0.456931 9.12128C0.384322 9.00354 0.336909 8.87318 0.317446 8.73776C0.297984 8.60234 0.306861 8.46457 0.343562 8.33247C0.925094 6.1083 2.21864 4.11353 4.04339 2.62697C5.86814 1.14041 8.13288 0.236371 10.5211 0.0412164L10.5225 0.0398414ZM5.635 20.4613C7.17598 21.335 8.90902 21.8522 10.696 21.9718C12.4829 22.0914 14.2744 21.81 15.9275 21.1501C17.5807 20.4903 19.0498 19.4701 20.2178 18.171C21.3858 16.8719 22.2204 15.3297 22.655 13.6675C22.7197 13.4037 22.6733 13.1262 22.5259 12.8949C22.3785 12.6637 22.1418 12.4971 21.8671 12.4314C21.5923 12.3656 21.3016 12.406 21.0576 12.5436C20.8137 12.6812 20.6362 12.9052 20.5634 13.167C20.1205 14.8607 19.1686 16.3932 17.8253 17.5753C16.4821 18.7574 14.8063 19.5373 13.0049 19.8187C11.2035 20.1 9.35538 19.8706 7.68877 19.1586C6.02216 18.4467 4.61005 17.2834 3.62681 15.8125H6.10938C6.39531 15.8125 6.66954 15.7038 6.87172 15.5104C7.07391 15.317 7.1875 15.0547 7.1875 14.7812C7.1875 14.5077 7.07391 14.2454 6.87172 14.052C6.66954 13.8586 6.39531 13.75 6.10938 13.75H0V19.5937C0 19.8672 0.113588 20.1295 0.315775 20.3229C0.517963 20.5163 0.792188 20.625 1.07812 20.625C1.36406 20.625 1.63829 20.5163 1.84047 20.3229C2.04266 20.1295 2.15625 19.8672 2.15625 19.5937V17.413C3.08312 18.6481 4.26763 19.6861 5.635 20.4613Z" fill="#F8F8F8"/>
</g>
<defs>
<clipPath id="clip0_240_1747">
<rect width="23" height="22" fill="white"/>
</clipPath>
</defs>
</svg>
