<svg width="25" height="24" viewBox="0 0 25 24" fill="none" xmlns="http://www.w3.org/2000/svg">
<path fill-rule="evenodd" clip-rule="evenodd" d="M14.8412 0.1824C14.3543 -5.36442e-08 13.7359 0 12.5004 0C11.2649 0 10.6477 -5.36442e-08 10.1596 0.1824C9.83839 0.302094 9.54632 0.478538 9.30018 0.701576C9.05404 0.924614 8.8587 1.18984 8.72539 1.482C8.6017 1.7496 8.55433 2.0628 8.5346 2.5176C8.52521 2.847 8.42416 3.16882 8.24095 3.45283C8.05774 3.73683 7.79838 3.97371 7.48723 4.1412C7.16979 4.30212 6.81295 4.38737 6.44977 4.38905C6.08659 4.39073 5.72882 4.30878 5.40961 4.1508C4.96487 3.9372 4.64251 3.8196 4.32409 3.7812C3.62749 3.69831 2.92312 3.86904 2.36357 4.2564C1.94515 4.5468 1.63594 5.0316 1.01883 6C0.400414 6.9684 0.0925201 7.452 0.0227835 7.926C-0.0693215 8.5572 0.120152 9.1956 0.549098 9.7008C0.743834 9.9312 1.01883 10.1244 1.44383 10.3668C2.07146 10.7232 2.47409 11.3304 2.47409 12C2.47409 12.6696 2.07146 13.2768 1.44515 13.632C1.01883 13.8756 0.743834 14.0688 0.547782 14.2992C0.336686 14.5491 0.181664 14.8344 0.0915802 15.1389C0.00149672 15.4435 -0.0218812 15.7612 0.0227835 16.074C0.0925201 16.5468 0.400414 17.0316 1.01883 18C1.63725 18.9684 1.94515 19.452 2.36357 19.7436C2.92146 20.1312 3.62672 20.3016 4.32409 20.2188C4.64251 20.1804 4.96487 20.0628 5.40961 19.8492C5.72898 19.691 6.087 19.6089 6.45043 19.6106C6.81386 19.6123 7.17095 19.6977 7.48855 19.8588C8.12802 20.1948 8.50697 20.8128 8.5346 21.4824C8.55433 21.9384 8.6017 22.2504 8.72539 22.518C8.99381 23.106 9.50959 23.574 10.1596 23.8176C10.6464 24 11.2649 24 12.5004 24C13.7359 24 14.3543 24 14.8412 23.8176C15.1624 23.6979 15.4544 23.5215 15.7006 23.2984C15.9467 23.0754 16.1421 22.8102 16.2754 22.518C16.399 22.2504 16.4464 21.9384 16.4662 21.4824C16.4925 20.8128 16.8727 20.1936 17.5135 19.8588C17.831 19.6979 18.1878 19.6126 18.551 19.6109C18.9142 19.6093 19.2719 19.6912 19.5911 19.8492C20.0359 20.0628 20.3582 20.1804 20.6767 20.2188C21.374 20.3028 22.0793 20.1312 22.6372 19.7436C23.0556 19.4532 23.3648 18.9684 23.9819 18C24.6003 17.0316 24.9082 16.548 24.978 16.074C25.0224 15.7611 24.9989 15.4434 24.9085 15.1388C24.8182 14.8343 24.663 14.549 24.4517 14.2992C24.2569 14.0688 23.9819 13.8756 23.5569 13.6332C22.9293 13.2768 22.5267 12.6696 22.5267 12C22.5267 11.3304 22.9293 10.7232 23.5556 10.368C23.9819 10.1244 24.2569 9.9312 24.453 9.7008C24.6641 9.45095 24.8191 9.16559 24.9092 8.86106C24.9992 8.55652 25.0226 8.23878 24.978 7.926C24.9082 7.4532 24.6003 6.9684 23.9819 6C23.3635 5.0316 23.0556 4.548 22.6372 4.2564C22.0776 3.86904 21.3733 3.69831 20.6767 3.7812C20.3582 3.8196 20.0359 3.9372 19.5911 4.1508C19.2718 4.309 18.9138 4.39106 18.5503 4.38938C18.1869 4.3877 17.8298 4.30234 17.5122 4.1412C17.2013 3.97356 16.9422 3.73662 16.7592 3.45263C16.5763 3.16863 16.4754 2.84689 16.4662 2.5176C16.4464 2.0616 16.399 1.7496 16.2754 1.482C16.1421 1.18984 15.9467 0.924614 15.7006 0.701576C15.4544 0.478538 15.1624 0.302094 14.8412 0.1824ZM12.5004 15.6C14.6977 15.6 16.478 13.9884 16.478 12C16.478 10.0116 14.6964 8.4 12.5004 8.4C10.3043 8.4 8.52276 10.0116 8.52276 12C8.52276 13.9884 10.3043 15.6 12.5004 15.6Z" fill="#C5B0E9"/>
</svg>
