<svg width="28" height="27" viewBox="0 0 28 27" fill="none" xmlns="http://www.w3.org/2000/svg">
<path d="M11.6667 4.02515C11.4347 4.02515 11.2121 3.93625 11.048 3.77802C10.8839 3.61978 10.7917 3.40517 10.7917 3.1814C10.7917 2.95762 10.8839 2.74301 11.048 2.58478C11.2121 2.42654 11.4347 2.33765 11.6667 2.33765H15.7921C16.0241 2.33765 16.2467 2.42654 16.4108 2.58478C16.5749 2.74301 16.6671 2.95762 16.6671 3.1814C16.6671 3.40517 16.5749 3.61978 16.4108 3.77802C16.2467 3.93625 16.0241 4.02515 15.7921 4.02515H11.6667ZM7.6184 4.53365C7.78226 4.69185 7.8743 4.9063 7.8743 5.1299C7.8743 5.35349 7.78226 5.56794 7.6184 5.72615L4.70173 8.53865C4.53586 8.68769 4.31647 8.76883 4.08979 8.76497C3.8631 8.76111 3.64682 8.67256 3.48651 8.51797C3.32619 8.36338 3.23436 8.15482 3.23036 7.93623C3.22636 7.71765 3.31051 7.50609 3.46507 7.34615L6.38173 4.53365C6.54579 4.37564 6.76819 4.28689 7.00007 4.28689C7.23194 4.28689 7.45434 4.37564 7.6184 4.53365Z" fill="#F8F8F8"/>
<path fill-rule="evenodd" clip-rule="evenodd" d="M13.9999 5.69238C11.3699 5.69238 8.84751 6.69986 6.98778 8.49317C5.12804 10.2865 4.08325 12.7188 4.08325 15.2549C4.08325 17.791 5.12804 20.2233 6.98778 22.0166C8.84751 23.8099 11.3699 24.8174 13.9999 24.8174C16.63 24.8174 19.1523 23.8099 21.0121 22.0166C22.8718 20.2233 23.9166 17.791 23.9166 15.2549C23.9166 12.7188 22.8718 10.2865 21.0121 8.49317C19.1523 6.69986 16.63 5.69238 13.9999 5.69238ZM19.8216 9.86726C19.9068 9.75902 19.9485 9.62469 19.939 9.4891C19.9294 9.35352 19.8693 9.22585 19.7697 9.12969C19.6702 9.03353 19.5378 8.97538 19.3972 8.96599C19.2567 8.95661 19.1173 8.99662 19.0049 9.07863L15.3008 11.8551L12.8799 13.5235C12.6819 13.6596 12.517 13.8356 12.3968 14.0394C12.2765 14.2431 12.2037 14.4697 12.1835 14.7034C12.1633 14.937 12.1962 15.1721 12.2798 15.3922C12.3634 15.6124 12.4958 15.8123 12.6678 15.9781C12.8397 16.1439 13.047 16.2715 13.2753 16.3522C13.5036 16.4328 13.7474 16.4645 13.9897 16.445C14.232 16.4256 14.467 16.3554 14.6783 16.2394C14.8896 16.1234 15.0722 15.9644 15.2133 15.7735L16.9423 13.438L19.8216 9.86726Z" fill="#F8F8F8"/>
</svg>
